<?xml version="1.0" encoding="UTF-8" standalone="no"?>
<!-- Created with Inkscape (http://www.inkscape.org/) -->

<svg
   version="1.1"
   id="svg2"
   xml:space="preserve"
   width="5333.3335"
   height="4266.6665"
   viewBox="0 0 5333.3335 4266.6665"
   sodipodi:docname="vecteezy_woman-get-social-media-notifications-with-some-related-icons_.eps"
   xmlns:inkscape="http://www.inkscape.org/namespaces/inkscape"
   xmlns:sodipodi="http://sodipodi.sourceforge.net/DTD/sodipodi-0.dtd"
   xmlns="http://www.w3.org/2000/svg"
   xmlns:svg="http://www.w3.org/2000/svg"><defs
     id="defs6"><clipPath
       clipPathUnits="userSpaceOnUse"
       id="clipPath62"><path
         d="m 27820.5,15647.8 h -1413.2 c -44.3,0 -80,35.8 -80,80 0,44.2 35.7,80 80,80 h 1413.2 c 44.3,0 80,-35.8 80,-80 0,-44.2 -35.7,-80 -80,-80"
         id="path60" /></clipPath></defs><sodipodi:namedview
     id="namedview4"
     pagecolor="#ffffff"
     bordercolor="#666666"
     borderopacity="1.0"
     inkscape:pageshadow="2"
     inkscape:pageopacity="0.0"
     inkscape:pagecheckerboard="0" /><g
     id="g8"
     inkscape:groupmode="layer"
     inkscape:label="ink_ext_XXXXXX"
     transform="matrix(1.3333333,0,0,-1.3333333,0,4266.6667)"><g
       id="g10"
       transform="scale(0.1)">
       <path
         d="m 15930.7,10010.5 c -19.5,0 -38.6,9.5 -50.2,26.9 -37.6,57.1 -73.7,115.1 -107.3,172.6 -16.7,28.6 -7.1,65.4 21.5,82.1 9.5,5.5 20,8.2 30.3,8.2 20.6,0 40.6,-10.6 51.8,-29.8 32.5,-55.6 67.5,-111.8 103.9,-167 18.2,-27.6 10.6,-64.9 -17.1,-83.1 -10.1,-6.7 -21.6,-9.9 -32.9,-9.9 m -237.2,416.8 c -22.3,0 -43.8,12.6 -54.1,34.1 -29.6,61.5 -57.3,124.2 -82.5,186.2 -12.4,30.7 2.4,65.7 33.1,78.1 7.4,3.1 15.1,4.5 22.6,4.5 23.7,0 46.1,-14.2 55.6,-37.5 24.2,-59.7 50.9,-120.1 79.4,-179.4 14.3,-29.9 1.7,-65.7 -28.2,-80.1 -8.3,-4 -17.2,-5.9 -25.9,-5.9 m -174.1,446.8 c -25.8,0 -49.6,16.7 -57.4,42.7 -19.6,65.1 -37.2,131.5 -52.1,197.3 -7.3,32.3 12.9,64.5 45.2,71.8 4.5,1 9,1.5 13.4,1.5 27.4,0 52.1,-18.9 58.4,-46.7 14.3,-63.1 31.2,-126.8 50,-189.3 9.5,-31.8 -8.5,-65.2 -40.2,-74.8 -5.8,-1.7 -11.6,-2.5 -17.3,-2.5 m -99.4,469.1 c -29.8,0 -55.7,22.2 -59.5,52.6 -8.3,67.4 -14.3,135.8 -17.8,203.4 -1.8,33.1 23.7,61.3 56.8,63.1 1,0 2.1,0.1 3.1,0.1 31.1,0 58.2,-24.9 59.9,-56.9 3.4,-64.8 9.1,-130.4 17.1,-195 4.1,-32.8 -19.2,-62.8 -52.1,-66.9 -2.5,-0.3 -5,-0.4 -7.5,-0.4 m -18.1,479.1 c -0.9,0 -1.8,0 -2.8,0.1 -33.1,1.5 -58.7,29.6 -57.1,62.7 3.1,67.2 8.7,135.6 16.6,203.1 3.5,30.7 29.6,53.1 59.7,53.1 2.3,0 4.5,-0.1 6.8,-0.4 32.9,-3.8 56.5,-33.6 52.7,-66.5 -7.6,-64.8 -12.9,-130.4 -15.9,-194.9 -1.6,-32.2 -28.1,-57.2 -60,-57.2 m 61.3,474.7 c -4.1,0 -8.2,0.4 -12.4,1.3 -32.4,6.8 -53.2,38.6 -46.4,71.1 13.8,65.6 30,132.1 48.1,197.7 7.3,26.7 31.4,44.1 57.8,44.1 5.3,0 10.6,-0.7 15.9,-2.2 32,-8.8 50.8,-41.8 41.9,-73.8 -17.4,-63.2 -33,-127.3 -46.2,-190.5 -6,-28.3 -30.9,-47.7 -58.7,-47.7 m 132.4,460.6 c -6.8,0 -13.8,1.2 -20.6,3.6 -31.1,11.3 -47.1,45.8 -35.8,76.9 22.8,62.6 47.9,126.1 74.7,188.9 9.7,22.8 31.9,36.5 55.2,36.5 7.9,0 15.9,-1.6 23.5,-4.8 30.5,-13 44.7,-48.3 31.7,-78.8 -26,-60.8 -50.3,-122.3 -72.4,-182.9 -8.8,-24.3 -31.8,-39.4 -56.3,-39.4 m 192.3,439.3 c -9.3,0 -18.6,2.1 -27.3,6.6 -29.5,15.1 -41.2,51.2 -26.1,80.7 30.2,59.2 62.6,119.2 96.3,178.3 11.1,19.4 31.3,30.3 52.2,30.3 10,0 20.3,-2.5 29.7,-7.9 28.8,-16.4 38.8,-53 22.4,-81.8 -32.8,-57.6 -64.4,-116 -93.8,-173.5 -10.6,-20.7 -31.6,-32.7 -53.4,-32.7 m 240.9,414.9 c -11.3,0 -22.6,3.1 -32.7,9.7 -27.8,18.1 -35.6,55.2 -17.5,83 36.3,55.8 74.5,112.1 113.6,167.3 11.7,16.6 30.3,25.4 49.1,25.4 12,0 24,-3.6 34.6,-11 27,-19.2 33.4,-56.6 14.3,-83.7 -38.2,-54 -75.6,-109 -111.1,-163.5 -11.5,-17.6 -30.7,-27.2 -50.3,-27.2 m 280,389.8 c -13,0 -26.1,4.2 -37.1,12.9 -26,20.4 -30.5,58.2 -10,84.2 41.3,52.5 84.2,105.2 127.6,156.7 11.8,14 28.8,21.3 45.9,21.3 13.7,0 27.4,-4.7 38.6,-14.2 25.4,-21.3 28.6,-59.2 7.2,-84.5 -42.5,-50.4 -84.5,-102 -125,-153.5 -11.9,-15.1 -29.4,-22.9 -47.2,-22.9 m 311.5,365.2 c -14.5,0 -29.1,5.3 -40.6,15.9 -24.4,22.4 -25.9,60.4 -3.5,84.8 45.2,49.1 91.9,98.4 138.9,146.4 11.8,12 27.3,18 42.9,18 15.2,0 30.3,-5.6 41.9,-17.1 23.7,-23.1 24.2,-61.1 1,-84.8 -46.1,-47.2 -92,-95.6 -136.4,-143.8 -11.8,-12.8 -28,-19.4 -44.2,-19.4 m 337.3,341.8 c -15.9,0 -31.7,6.2 -43.5,18.7 -22.8,24 -21.8,62 2.2,84.8 48.7,46.1 98,91.6 148,136.5 11.5,10.3 25.8,15.3 40.1,15.3 16.4,0 32.8,-6.7 44.6,-19.8 22.2,-24.7 20.2,-62.7 -4.5,-84.8 -49.2,-44.2 -97.8,-88.9 -145.6,-134.3 -11.6,-11 -26.5,-16.4 -41.3,-16.4 m 358.4,318.6 c -17.2,0 -34.2,7.3 -46.1,21.5 -21.2,25.4 -17.9,63.3 7.6,84.5 51.5,43.1 103.6,85.5 156.2,127.4 11,8.8 24.2,13 37.3,13 17.6,0 35.1,-7.7 46.9,-22.6 20.7,-26 16.4,-63.7 -9.6,-84.3 -51.8,-41.2 -103.1,-83.1 -153.9,-125.5 -11.2,-9.4 -24.8,-14 -38.4,-14 m 377.2,297.4 c -18.3,0 -36.4,8.4 -48.2,24.2 -19.7,26.6 -14.2,64.2 12.4,84 54,40.2 108.5,79.7 163.4,118.5 10.5,7.4 22.6,11 34.6,11 18.8,0 37.3,-8.8 49,-25.3 19.2,-27 12.8,-64.5 -14.3,-83.6 -54,-38.3 -107.8,-77.3 -161.1,-117 -10.8,-7.9 -23.3,-11.8 -35.8,-11.8 m 394,276.3 c -19.5,0 -38.6,9.5 -50.1,26.9 -18.3,27.6 -10.8,64.9 16.9,83.2 56.1,37.1 112.6,73.6 169.3,109.3 9.9,6.2 20.9,9.2 31.8,9.2 20,0 39.5,-9.9 50.9,-28 17.7,-28.1 9.2,-65.1 -18.8,-82.8 -55.9,-35.2 -111.6,-71.1 -167,-107.8 -10.2,-6.7 -21.7,-10 -33,-10 m 407.4,254.3 c -20.6,0 -40.6,10.6 -51.8,29.6 -16.8,28.6 -7.2,65.4 21.3,82.1 58.2,34.2 116.5,67.6 174.9,100.1 9.2,5.2 19.3,7.7 29.1,7.7 21.1,0 41.5,-11.2 52.5,-30.9 16.1,-28.9 5.8,-65.4 -23.2,-81.6 -57.6,-32.1 -115.1,-65 -172.5,-98.7 -9.5,-5.6 -20,-8.3 -30.3,-8.3 m 3983.1,1905.4 c 2.2,46.5 4.1,95.5 5.7,146.6 13.3,8.6 26.5,17.3 39.8,26 10.1,6.6 21.5,9.8 32.8,9.8 19.6,0 38.7,-9.5 50.3,-27.1 18.2,-27.7 10.4,-64.9 -17.3,-83 -37,-24.4 -74.1,-48.4 -111.3,-72.3 m 311,218.9 c -19.1,0 -37.8,9 -49.4,25.9 -18.9,27.3 -12,64.6 15.3,83.5 54.4,37.5 108.7,75.6 162.7,114.2 10.5,7.5 22.7,11.2 34.8,11.2 18.7,0 37.1,-8.8 48.9,-25.2 19.2,-26.9 13,-64.4 -14,-83.7 -54.5,-38.9 -109.3,-77.4 -164.3,-115.3 -10.4,-7.2 -22.3,-10.6 -34,-10.6 m 389.2,280.5 c -18.2,0 -36.1,8.2 -47.9,23.9 -20,26.4 -14.7,64.1 11.8,84 53,39.9 105.7,80.4 158.1,121.3 10.9,8.5 24,12.7 36.9,12.7 17.8,0 35.5,-7.9 47.3,-23 20.4,-26.2 15.8,-63.9 -10.3,-84.3 -52.9,-41.3 -106.2,-82.2 -159.8,-122.6 -10.8,-8.1 -23.5,-12 -36.1,-12 m 377.7,297.7 c -17.2,0 -34.4,7.4 -46.3,21.8 -21.1,25.5 -17.5,63.4 8.1,84.5 51.2,42.2 101.9,85 152,128.2 11.3,9.7 25.3,14.5 39.1,14.5 16.9,0 33.6,-7 45.5,-20.8 21.6,-25.1 18.8,-63 -6.3,-84.6 -50.8,-43.8 -102.1,-87 -153.9,-129.8 -11.2,-9.3 -24.7,-13.8 -38.2,-13.8 m 362.6,314.9 c -16.3,0 -32.5,6.6 -44.3,19.6 -22.4,24.4 -20.7,62.4 3.8,84.7 49,44.8 97.5,90.1 145.2,135.8 11.6,11.1 26.5,16.6 41.4,16.6 15.8,0 31.6,-6.2 43.4,-18.5 22.9,-24 22.1,-62 -1.9,-84.9 -48.4,-46.2 -97.4,-92.1 -147.2,-137.6 -11.5,-10.5 -26,-15.7 -40.4,-15.7 m 345.3,333.8 c -15.1,0 -30.3,5.6 -41.9,17 -23.8,23.2 -24.2,61.2 -1.1,84.9 46.4,47.5 92,95.4 136.8,143.8 11.9,12.8 28,19.2 44.1,19.2 14.6,0 29.2,-5.3 40.8,-16 24.2,-22.5 25.7,-60.5 3.2,-84.7 -45.5,-49.2 -91.9,-97.9 -139,-146.1 -11.7,-12.1 -27.3,-18.1 -42.9,-18.1 m 324.2,354 c -13.8,0 -27.7,4.8 -39,14.5 -25.2,21.5 -28.2,59.4 -6.6,84.6 43.4,50.7 86,102 126.6,152.5 11.8,14.7 29.2,22.4 46.8,22.4 13.2,0 26.5,-4.4 37.5,-13.2 25.9,-20.8 30,-58.6 9.2,-84.4 -41.3,-51.4 -84.7,-103.7 -128.9,-155.4 -11.9,-13.8 -28.7,-21 -45.6,-21 m 298.2,376.2 c -12.3,0 -24.7,3.7 -35.4,11.5 -26.8,19.6 -32.6,57.1 -13,83.9 38.9,53.3 77.2,107.7 113.8,161.8 11.5,17.2 30.4,26.4 49.7,26.4 11.6,0 23.2,-3.3 33.5,-10.3 27.5,-18.6 34.7,-55.9 16.1,-83.3 -37.3,-55.3 -76.5,-110.9 -116.3,-165.4 -11.7,-16.1 -30,-24.6 -48.4,-24.6 m 265.5,399.7 c -10.5,0 -21.1,2.7 -30.8,8.5 -28.4,17 -37.7,53.9 -20.7,82.3 34.2,57.2 67,114.9 97.6,171.5 10.9,20.1 31.5,31.5 52.8,31.5 9.7,0 19.4,-2.3 28.5,-7.2 29.2,-15.8 40.1,-52.2 24.3,-81.3 -31.4,-58.2 -65.1,-117.4 -100.2,-176.1 -11.2,-18.8 -31.1,-29.2 -51.5,-29.2 m 223.7,424.1 c -8.3,0 -16.8,1.8 -24.9,5.5 -30.2,13.8 -43.4,49.4 -29.7,79.5 27.4,59.9 53.4,120.8 77.2,181 9.3,23.6 31.9,37.9 55.8,37.9 7.3,0 14.8,-1.3 22,-4.2 30.9,-12.2 45.9,-47.1 33.8,-77.9 -24.6,-62.1 -51.4,-124.9 -79.6,-186.7 -10.1,-22 -31.9,-35.1 -54.6,-35.1 m 170.9,447.8 c -5.8,0 -11.7,0.8 -17.6,2.6 -31.6,9.7 -49.5,43.3 -39.8,74.9 19.2,62.7 36.6,126.3 51.6,189.2 6.6,27.4 31.1,46 58.2,46 4.7,0 9.4,-0.5 14.2,-1.7 32.2,-7.7 52.1,-40.1 44.3,-72.3 -15.6,-65.3 -33.6,-131.3 -53.5,-196.3 -7.9,-25.8 -31.7,-42.4 -57.4,-42.4 m 105.4,467.5 c -2.9,0 -5.7,0.2 -8.6,0.6 -32.8,4.7 -55.6,35.1 -50.9,67.9 9.2,64.4 16.3,129.7 21.1,194.2 2.3,31.8 28.7,55.6 60.4,55.6 1.3,0 2.6,-0.1 3.8,-0.1 33.1,-2.5 57.9,-31.2 55.5,-64.3 -5,-67.2 -12.4,-135.4 -22,-202.5 -4.3,-29.9 -30,-51.4 -59.3,-51.4 m -11887.6,402.5 c -28.8,0 -54.2,20.9 -59.1,50.3 -5.3,32.7 16.8,63.6 49.5,68.9 63.3,10.4 128.4,22.8 193.6,36.8 4.2,0.9 8.5,1.3 12.6,1.3 27.8,0 52.6,-19.2 58.6,-47.4 7,-32.4 -13.6,-64.3 -46,-71.3 -67.1,-14.3 -134.1,-27.1 -199.3,-37.8 -3.4,-0.5 -6.6,-0.8 -9.9,-0.8 m 11915.3,75.5 c -32.3,0 -59,25.7 -59.9,58.3 -1.9,64.7 -6.2,130.3 -12.8,195 -3.4,33 20.6,62.4 53.6,65.8 2,0.2 4,0.3 6,0.3 30.6,0 56.6,-22.9 59.8,-53.8 6.9,-67.7 11.4,-136.3 13.3,-203.9 0.9,-33.1 -25.2,-60.7 -58.3,-61.7 h -1.7 m -11447.2,28.9 c -26.3,0 -50.4,17.4 -57.8,43.9 -8.8,31.9 9.8,65 41.8,73.9 61.8,17.2 125.5,36.2 189.4,56.6 6.1,2 12.2,2.9 18.3,2.9 25.4,0 49,-16.3 57.1,-41.8 10.1,-31.6 -7.4,-65.3 -38.9,-75.4 -65.4,-20.8 -130.5,-40.3 -193.8,-57.9 -5.3,-1.5 -10.8,-2.2 -16.1,-2.2 m 456.3,148.5 c -24.4,0 -47.4,15 -56.3,39.3 -11.5,31 4.4,65.5 35.5,77 60.1,22.3 122.4,46.3 184.9,71.5 7.4,3 14.9,4.4 22.4,4.4 23.7,0 46.3,-14.2 55.7,-37.6 12.4,-30.8 -2.5,-65.7 -33.3,-78.1 -63.6,-25.6 -126.9,-50.1 -188.1,-72.7 -6.9,-2.5 -13.9,-3.8 -20.8,-3.8 m 444.5,181.3 c -23.1,0 -45,13.3 -54.9,35.7 -13.4,30.3 0.3,65.7 30.5,79.2 60.2,26.6 120.5,54.1 180.9,82.4 8.2,3.8 16.9,5.7 25.4,5.7 22.6,0 44.2,-12.8 54.4,-34.6 14.1,-30 1.1,-65.7 -28.9,-79.8 -61.2,-28.6 -122.2,-56.5 -183.2,-83.5 -7.9,-3.5 -16.1,-5.1 -24.2,-5.1 m 10490.3,117.2 c -27.8,0 -52.7,19.5 -58.6,47.8 -13.2,63.2 -28.9,127.2 -46.7,190 -9.1,31.8 9.4,65 41.2,74.1 5.5,1.6 11,2.3 16.5,2.3 26,0 50.1,-17.2 57.6,-43.6 18.7,-65.6 35.1,-132.3 48.9,-198.3 6.7,-32.5 -14.1,-64.2 -46.6,-71 -4.1,-0.8 -8.2,-1.3 -12.3,-1.3 m -10056.2,87.8 c -22,0 -43.2,12.2 -53.7,33.3 -14.8,29.6 -2.8,65.6 26.8,80.4 59.1,29.5 118.2,59.7 177.5,90.5 8.8,4.5 18.3,6.7 27.6,6.7 21.7,0 42.6,-11.8 53.3,-32.3 15.2,-29.4 3.8,-65.6 -25.6,-80.9 -59.8,-31.1 -119.5,-61.5 -179.1,-91.3 -8.6,-4.3 -17.8,-6.4 -26.8,-6.4 m 425.7,222.4 c -21.3,0 -41.9,11.3 -52.8,31.4 -15.8,29.1 -5,65.5 24.1,81.3 58.2,31.6 116.4,63.7 174.7,96.2 9.3,5.1 19.3,7.6 29.2,7.6 21,0 41.5,-11.1 52.4,-30.8 16.2,-29 5.8,-65.5 -23.2,-81.6 -58.7,-32.8 -117.3,-65.1 -175.9,-96.8 -9,-5 -18.9,-7.3 -28.5,-7.3 m 9493.2,149.1 c -23.9,0 -46.6,14.5 -55.8,38.1 -23.5,60 -49.5,120.6 -77.4,180.2 -14.1,30 -1.1,65.7 28.9,79.8 8.3,3.8 16.9,5.6 25.4,5.6 22.6,0 44.2,-12.7 54.4,-34.5 29,-62 56,-125 80.4,-187.3 12.1,-30.9 -3.1,-65.7 -34,-77.8 -7.2,-2.8 -14.6,-4.1 -21.9,-4.1 m -9074.1,85.3 c -20.8,0 -41,10.9 -52.1,30.2 -16.5,28.8 -6.5,65.4 22.2,81.9 57.5,33 115.1,66.4 172.8,100 9.5,5.6 19.9,8.2 30.2,8.2 20.6,0 40.7,-10.6 51.9,-29.7 16.7,-28.7 7,-65.4 -21.6,-82.1 -57.9,-33.8 -115.8,-67.3 -173.6,-100.5 -9.4,-5.4 -19.7,-8 -29.8,-8 m 414.6,242.5 c -20.5,0 -40.4,10.5 -51.6,29.4 -17,28.5 -7.6,65.3 20.9,82.2 57.2,34 114.4,68.1 171.7,102.4 9.6,5.8 20.2,8.6 30.7,8.6 20.4,0 40.3,-10.4 51.6,-29.2 17,-28.4 7.8,-65.3 -20.7,-82.3 -57.4,-34.4 -114.7,-68.6 -172,-102.7 -9.6,-5.7 -20.2,-8.4 -30.6,-8.4 m 8451.4,104.1 c -20.8,0 -41,10.9 -52.1,30.2 -32.1,56 -66.7,112.4 -102.6,167.7 -18.1,27.8 -10.2,65 17.6,83 10.1,6.6 21.4,9.7 32.6,9.7 19.7,0 38.9,-9.6 50.4,-27.3 37.1,-57.1 72.8,-115.4 106.1,-173.4 16.5,-28.7 6.6,-65.3 -22.1,-81.9 -9.5,-5.4 -19.7,-8 -29.9,-8 m -8039.5,142.9 c -20.3,0 -40.2,10.4 -51.4,29 -17.2,28.4 -8,65.3 20.3,82.4 l 171.8,103.8 c 9.7,5.9 20.4,8.7 31,8.7 20.3,0 40.1,-10.3 51.4,-29 17.1,-28.3 8.1,-65.2 -20.3,-82.3 l -171.8,-103.9 c -9.7,-5.9 -20.4,-8.7 -31,-8.7 m 411.9,249.1 c -20.3,0 -40.2,10.4 -51.4,29 -17.2,28.4 -8.1,65.3 20.3,82.4 l 171.6,103.5 c 9.7,5.8 20.4,8.6 30.9,8.6 20.4,0 40.2,-10.4 51.5,-29.2 17.1,-28.3 7.9,-65.2 -20.5,-82.3 l -171.5,-103.3 c -9.7,-5.9 -20.4,-8.7 -30.9,-8.7 m 7362.7,7.9 c -18.4,0 -36.4,8.3 -48.2,24.1 -39.7,53.3 -80.3,106.2 -120.7,157.2 -20.6,26 -16.1,63.8 9.8,84.3 11.1,8.8 24.2,13 37.2,13 17.7,0 35.2,-7.8 47.1,-22.8 41.1,-51.9 82.5,-105.8 122.8,-160 19.8,-26.6 14.3,-64.2 -12.3,-84 -10.7,-8 -23.3,-11.8 -35.7,-11.8 m -6950.8,239.3 c -20.5,0 -40.4,10.5 -51.7,29.4 -16.9,28.5 -7.5,65.3 21,82.2 57.4,34.1 114.8,68.1 172.2,101.9 9.5,5.6 20,8.3 30.3,8.3 20.6,0 40.6,-10.6 51.8,-29.6 16.8,-28.6 7.3,-65.3 -21.3,-82.1 -57.2,-33.7 -114.5,-67.6 -171.7,-101.6 -9.6,-5.7 -20.2,-8.5 -30.6,-8.5 m 6650.4,134.8 c -16.8,0 -33.5,7 -45.3,20.6 -43.9,50.6 -88.4,100 -132.4,147.1 -22.6,24.2 -21.2,62.2 3,84.8 11.5,10.8 26.2,16.1 40.9,16.1 16,0 32.1,-6.4 43.9,-19 44.9,-48.1 90.4,-98.7 135.2,-150.2 21.7,-25.1 19,-62.9 -6,-84.7 -11.3,-9.8 -25.4,-14.7 -39.3,-14.7 m -6236.9,107.7 c -20.7,0 -40.9,10.8 -52,30.1 -16.5,28.7 -6.7,65.3 22.1,81.9 58,33.4 116.1,66.6 174.1,99.4 9.4,5.3 19.5,7.8 29.5,7.8 21,0 41.3,-11 52.3,-30.5 16.3,-28.9 6.2,-65.5 -22.7,-81.8 -57.8,-32.6 -115.6,-65.6 -173.4,-98.9 -9.4,-5.4 -19.7,-8 -29.9,-8 m 418.6,235.4 c -21.2,0 -41.7,11.3 -52.7,31.2 -15.8,29.1 -5.2,65.6 23.9,81.5 58.9,32.2 117.8,64 176.7,95.4 9,4.7 18.6,7 28.1,7 21.5,0 42.3,-11.6 53,-31.8 15.6,-29.3 4.5,-65.6 -24.8,-81.2 -58.4,-31.1 -116.9,-62.7 -175.4,-94.7 -9.1,-5 -19,-7.4 -28.8,-7.4 m 5488.1,4.9 c -15,0 -29.9,5.5 -41.5,16.6 -47.9,46 -96.8,90.9 -145.3,133.6 -24.9,21.8 -27.3,59.8 -5.4,84.7 11.8,13.4 28.4,20.3 45,20.3 14.1,0 28.2,-4.9 39.6,-14.9 49.8,-43.8 100,-89.9 149.1,-137 23.9,-23 24.8,-61 1.8,-84.9 -11.8,-12.3 -27.5,-18.4 -43.3,-18.4 m -5063.5,219.5 c -21.9,0 -43,12 -53.5,32.9 -15,29.5 -3.3,65.6 26.3,80.6 60,30.5 119.9,60.4 179.9,89.7 8.4,4.2 17.4,6.1 26.3,6.1 22.2,0 43.5,-12.3 53.9,-33.6 14.6,-29.8 2.2,-65.7 -27.5,-80.3 -59.4,-29 -118.8,-58.7 -178.3,-88.8 -8.7,-4.5 -18,-6.6 -27.1,-6.6 m 4700.2,93.5 c -12.8,0 -25.6,4.1 -36.5,12.4 -52.4,40.3 -105.9,79.2 -159.1,115.9 -27.3,18.8 -34.2,56.2 -15.4,83.4 11.7,16.9 30.4,26 49.4,26 11.8,0 23.7,-3.4 34.1,-10.6 54.8,-37.8 110,-78 164,-119.5 26.3,-20.1 31.3,-57.8 11.1,-84.1 -11.8,-15.4 -29.6,-23.5 -47.6,-23.5 m -4268,115.7 c -22.7,0 -44.5,13 -54.6,35 -13.8,30.2 -0.5,65.8 29.6,79.6 61.3,28 122.6,55.4 183.9,81.9 7.7,3.4 15.8,4.9 23.8,4.9 23.2,0 45.3,-13.5 55.1,-36.1 13.1,-30.4 -0.8,-65.8 -31.2,-78.9 -60.5,-26.2 -121.1,-53.2 -181.7,-81 -8,-3.6 -16.5,-5.4 -24.9,-5.4 m 3870.1,151.8 c -10.3,0 -20.6,2.6 -30.1,8.1 -57,33 -115.1,64.4 -172.7,93.4 -29.6,14.9 -41.5,50.9 -26.6,80.5 10.5,21 31.6,33.1 53.6,33.1 9.1,0 18.3,-2.1 26.9,-6.4 59.8,-30 119.9,-62.6 179,-96.8 28.6,-16.6 38.4,-53.3 21.8,-82 -11.1,-19.2 -31.3,-29.9 -51.9,-29.9 m -3428.7,36.8 c -23.9,0 -46.5,14.4 -55.8,38 -12.1,30.8 3,65.7 33.8,77.8 62.9,24.9 125.7,48.8 188.5,71.7 6.7,2.4 13.6,3.6 20.5,3.6 24.4,0 47.5,-15.1 56.4,-39.4 11.4,-31.2 -4.7,-65.6 -35.8,-77 -61.8,-22.5 -123.6,-46 -185.5,-70.5 -7.3,-2.8 -14.7,-4.2 -22.1,-4.2 m 452,161.6 c -25.5,0 -49.1,16.3 -57.2,41.9 -10.1,31.5 7.4,65.3 39,75.3 65,20.7 130.1,40.2 193.5,58 5.4,1.6 10.9,2.3 16.3,2.3 26.2,0 50.3,-17.3 57.7,-43.8 9,-31.9 -9.6,-65 -41.5,-74 -62.1,-17.4 -125.9,-36.6 -189.7,-56.8 -6,-2 -12.1,-2.9 -18.1,-2.9 m 2545.7,11.5 c -7.4,0 -14.9,1.3 -22.2,4.2 -60.7,24.2 -122.7,46.6 -184.3,66.7 -31.6,10.2 -48.8,44.1 -38.6,75.6 8.3,25.3 31.7,41.4 57.1,41.4 6.1,0 12.4,-0.9 18.6,-2.9 64,-20.9 128.5,-44.2 191.6,-69.3 30.8,-12.2 45.8,-47.1 33.6,-77.9 -9.4,-23.5 -32,-37.8 -55.8,-37.8 m -2083,114.8 c -27.5,0 -52.2,19 -58.5,46.9 -7.3,32.3 13,64.4 45.3,71.7 66.7,15 133.4,28.6 198.4,40.4 3.7,0.7 7.3,1 11,1 28.4,0 53.5,-20.4 58.8,-49.3 5.9,-32.6 -15.7,-63.8 -48.3,-69.7 -63.4,-11.6 -128.4,-24.8 -193.4,-39.5 -4.5,-1 -8.9,-1.5 -13.3,-1.5 m 1625.1,27.6 c -4.4,0 -8.9,0.5 -13.4,1.5 -63.3,14.4 -128.1,27 -192.4,37.3 -32.7,5.2 -55,36 -49.8,68.7 4.8,29.4 30.2,50.6 59,50.6 3.2,0 6.5,-0.3 9.8,-0.8 66.9,-10.8 134.2,-23.8 200.1,-38.8 32.3,-7.4 52.5,-39.5 45.2,-71.8 -6.4,-27.9 -31.1,-46.7 -58.5,-46.7 m -1152.6,53.6 c -30,0 -55.9,22.6 -59.5,53.1 -3.8,33 19.8,62.7 52.7,66.6 67.6,7.8 135.6,13.9 202.1,18.2 1.4,0 2.7,0.1 4,0.1 31,0 57.7,-24.4 59.7,-56.2 2.1,-33.1 -22.9,-61.6 -56,-63.7 -64.5,-4.1 -130.4,-10.1 -196,-17.7 -2.3,-0.2 -4.6,-0.4 -7,-0.4 m 678.5,16.7 c -1.5,0 -2.9,0.1 -4.4,0.2 -64.7,4.7 -130.6,7.5 -196.2,8.3 -33.1,0.4 -59.6,27.7 -59.2,60.8 0.4,32.9 27.2,59.2 60,59.2 h 0.8 c 67.9,-0.9 136.3,-3.8 203.2,-8.6 33.1,-2.4 57.9,-31.2 55.6,-64.2 -2.4,-31.6 -28.7,-55.7 -59.8,-55.7"
         style="fill:#252b4f;fill-opacity:1;fill-rule:nonzero;stroke:none"
         id="path16" /><path
         d="m 24681.5,5436.1 c 0,-607.5 -1835.6,-1100 -4100.1,-1100 -2264.3,0 -4100,492.5 -4100,1100 0,607.5 1835.7,1100 4100,1100 2264.5,0 4100.1,-492.5 4100.1,-1100"
         style="fill:#dedef7;fill-opacity:1;fill-rule:nonzero;stroke:none"
         id="path18" /><path
         d="m 14621.9,21986.3 -904.8,-242.1 335.2,383.4 z"
         style="fill:#428aeb;fill-opacity:1;fill-rule:nonzero;stroke:none"
         id="path20" /><path
         d="m 13491.3,23557.5 -1551.8,-2370.2 1996.2,1218.9 z"
         style="fill:#6ba9fb;fill-opacity:1;fill-rule:nonzero;stroke:none"
         id="path22" /><path
         d="m 14052.3,22127.6 427.8,-1111.5 -2540.6,171.2 z"
         style="fill:#6ba9fb;fill-opacity:1;fill-rule:nonzero;stroke:none"
         id="path24" /><path
         d="m 13935.7,22406.2 686.2,-419.9 -569.6,141.3 -2112.8,-940.3 1996.2,1218.9"
         style="fill:#428aeb;fill-opacity:1;fill-rule:nonzero;stroke:none"
         id="path26" /><path
         d="m 18706.4,25714.7 c 0,-540.3 -438.1,-978.3 -978.4,-978.3 -540.4,0 -978.4,438 -978.4,978.3 0,540.4 438,978.4 978.4,978.4 540.3,0 978.4,-438 978.4,-978.4"
         style="fill:#ff4962;fill-opacity:1;fill-rule:nonzero;stroke:none"
         id="path28" /><path
         d="m 18228.7,25341.5 -183.8,330.7 v 349.2 c 0,151.5 -123.9,275.5 -275.6,275.5 h -82.6 c -151.6,0 -275.7,-124 -275.7,-275.5 v -349.2 l -183.7,-330.7 h 183.7 111.3 c -0.6,-6.4 -1,-12.9 -1,-19.5 0,-104.6 84.8,-189.5 189.5,-189.5 104.6,0 189.5,84.9 189.5,189.5 0,6.6 -0.4,13.1 -1.1,19.5 h 145.7 183.8"
         style="fill:#f5f5f5;fill-opacity:1;fill-rule:nonzero;stroke:none"
         id="path30" /><path
         d="m 26847.2,23248.3 c 0,-628.2 -509.4,-1137.6 -1137.6,-1137.6 -628.3,0 -1137.6,509.4 -1137.6,1137.6 0,628.4 509.3,1137.7 1137.6,1137.7 628.2,0 1137.6,-509.3 1137.6,-1137.7"
         style="fill:#52d4a5;fill-opacity:1;fill-rule:nonzero;stroke:none"
         id="path32" /><path
         d="m 25383.8,22865.4 c -49.2,0 -98.5,17.1 -137.7,52 l -282.2,250.8 c -33,29.4 -36,79.9 -6.6,113 29.3,33 79.9,35.9 112.9,6.6 l 282.1,-250.8 c 19,-16.9 49.5,-15.3 66.6,3.3 l 530.9,575.9 c 30,32.5 80.6,34.6 113.1,4.6 32.5,-30 34.5,-80.5 4.6,-113 l -530.9,-576 c -40.7,-44 -96.7,-66.4 -152.8,-66.4"
         style="fill:#f5f5f5;fill-opacity:1;fill-rule:nonzero;stroke:none"
         id="path34" /><path
         d="m 25823.9,22854.8 c -19.4,0 -38.8,7 -54.2,21.2 -32.5,30 -34.5,80.6 -4.6,113 l 578.1,627.2 c 30,32.5 80.6,34.6 113.1,4.6 32.5,-30 34.5,-80.6 4.6,-113 l -578.2,-627.2 c -15.7,-17.1 -37.2,-25.8 -58.8,-25.8"
         style="fill:#f5f5f5;fill-opacity:1;fill-rule:nonzero;stroke:none"
         id="path36" /><path
         d="m 16816.4,15327.5 h -3375.8 c -244.3,0 -444.2,-199.9 -444.2,-444.2 v -1686.9 c 0,-244.3 199.9,-444.1 444.2,-444.1 H 15469 v -805.7 c 0,-244.3 141.4,-302.9 314.1,-130.1 l 935.8,935.8 h 97.5 c 244.3,0 444.2,199.8 444.2,444.1 v 1686.9 c 0,244.3 -199.9,444.2 -444.2,444.2"
         style="fill:#f59f35;fill-opacity:1;fill-rule:nonzero;stroke:none"
         id="path38" /><path
         d="m 12143.9,14919.4 h 3375.8 c 244.3,0 444.2,-199.9 444.2,-444.2 v -1686.8 c 0,-244.3 -199.9,-444.2 -444.2,-444.2 h -2028.5 v -805.7 c 0,-244.3 -141.3,-302.9 -314,-130.1 l -935.9,935.8 h -97.4 c -244.3,0 -444.2,199.9 -444.2,444.2 v 1686.8 c 0,244.3 199.9,444.2 444.2,444.2"
         style="fill:#f5d236;fill-opacity:1;fill-rule:nonzero;stroke:none"
         id="path40" /><path
         d="m 15232.4,14000.7 h -2241.2 c -44.2,0 -80,35.8 -80,80 0,44.1 35.8,80 80,80 h 2241.2 c 44.2,0 80,-35.9 80,-80 0,-44.2 -35.8,-80 -80,-80"
         style="fill:#f5f5f5;fill-opacity:1;fill-rule:nonzero;stroke:none"
         id="path42" /><path
         d="m 15232.4,13603.5 h -2801.2 c -44.2,0 -80,35.8 -80,80 0,44.2 35.8,80 80,80 h 2801.2 c 44.2,0 80,-35.8 80,-80 0,-44.2 -35.8,-80 -80,-80"
         style="fill:#f5f5f5;fill-opacity:1;fill-rule:nonzero;stroke:none"
         id="path44" /><path
         d="m 14631.2,13206.3 h -2200 c -44.2,0 -80,35.8 -80,80 0,44.2 35.8,80 80,80 h 2200 c 44.2,0 80,-35.8 80,-80 0,-44.2 -35.8,-80 -80,-80"
         style="fill:#f5f5f5;fill-opacity:1;fill-rule:nonzero;stroke:none"
         id="path46" /><path
         d="m 24855.2,15652.7 1691.4,1484.5 c 165.3,145.2 435.9,145.2 601.2,0 l 1691.4,-1484.5 h -3984"
         style="fill:#f5d236;fill-opacity:1;fill-rule:nonzero;stroke:none"
         id="path48" /><path
         d="m 29007.2,15327.8 v -1776 c 0,-220 -180,-400 -400,-400 h -3520 c -220,0 -400,180 -400,400 v 1776 c 0,220 180,400 400,400 h 3520 c 220,0 400,-180 400,-400"
         style="fill:#f59f35;fill-opacity:1;fill-rule:nonzero;stroke:none"
         id="path50" /><path
         d="m 28373.9,13947.8 c 0,-220 -180,-400 -400,-400 h -2253.4 c -220,0 -400,180 -400,400 V 16033 c 0,220 180,400 400,400 h 2253.4 c 220,0 400,-180 400,-400 v -2085.2"
         style="fill:#f5f5f5;fill-opacity:1;fill-rule:nonzero;stroke:none"
         id="path52" /><path
         d="m 29007.2,15214.6 v -1662.8 c 0,-220 -180,-400 -400,-400 h -3520 c -220,0 -400,180 -400,400 v 1662.8 c 0,0 646.8,-774.8 2160,-960 1513.2,185.2 2160,960 2160,960"
         style="fill:#f5d236;fill-opacity:1;fill-rule:nonzero;stroke:none"
         id="path54" /><g
         id="g56"><g
           id="g58"
           clip-path="url(#clipPath62)"><path
             d="m 26327.3,15647.8 h 1573.2 v 160 h -1573.2 z"
             style="fill:#dddddd;fill-opacity:1;fill-rule:nonzero;stroke:none"
             id="path64" /></g></g><path
         d="m 27820.5,15279.1 h -1946.6 c -44.2,0 -80,35.8 -80,80 0,44.2 35.8,80 80,80 h 1946.6 c 44.3,0 80,-35.8 80,-80 0,-44.2 -35.7,-80 -80,-80"
         style="fill:#dddddd;fill-opacity:1;fill-rule:nonzero;stroke:none"
         id="path66" /><path
         d="m 27327.3,14910.4 h -1453.4 c -44.2,0 -80,35.8 -80,80 0,44.2 35.8,80 80,80 h 1453.4 c 44.1,0 80,-35.8 80,-80 0,-44.2 -35.9,-80 -80,-80"
         style="fill:#dddddd;fill-opacity:1;fill-rule:nonzero;stroke:none"
         id="path68" /><path
         d="m 21710.9,6121.5 c 0,0 -686.8,-766.7 -474.6,-980 100.7,-221.6 1241,-165.3 1374.3,-40 186.7,213.3 160,773.3 80.1,1020 0,0 -226.8,486.7 -426.8,380 -200,-106.7 -553,-380 -553,-380"
         style="fill:#ff335d;fill-opacity:1;fill-rule:nonzero;stroke:none"
         id="path70" /><path
         d="m 22383.9,6085.3 c -106.7,-637.5 -536.4,-802.7 -1072.6,-507.8 0,0 259.4,507.8 536.2,646.7 389.7,-29.4 536.4,-138.9 536.4,-138.9"
         style="fill:#ffb29e;fill-opacity:1;fill-rule:nonzero;stroke:none"
         id="path72" /><path
         d="m 19702,6119.6 c 99.6,-200.8 134.3,-724.5 -31.2,-859.9 -127.1,-111.4 -1158.4,-379.9 -1974.2,-195.8 -71.4,125.3 -5.2,307.8 94.5,394.4 99.6,86.5 933.3,729.8 933.3,729.8 0,0 376.4,220.9 532.2,156.5 155.9,-64.4 445.4,-225 445.4,-225"
         style="fill:#ff335d;fill-opacity:1;fill-rule:nonzero;stroke:none"
         id="path74" /><path
         d="m 19358.4,6031.1 c -261.5,-250 -1135,-840.6 -1278.2,-309.2 172.3,100.7 703.1,498.6 703.1,498.6 0,0 463.1,121.5 526,16.8 62.8,-104.6 49.1,-206.2 49.1,-206.2"
         style="fill:#ffb29e;fill-opacity:1;fill-rule:nonzero;stroke:none"
         id="path76" /><path
         d="m 22536.9,15741.5 c 380,-1500 180,-3940 40,-4800 180,-1320 219.8,-4180 99.8,-4820 -360,-180 -720,-160 -979.9,0 -160,1040 -699.9,3820 -779.9,4140 -80,320 -320,2420 -320,2420 0,0 -281,-1716.3 -590,-2430 55.8,-990 -260,-3730 -260,-4100 -400,-310 -970,-150 -1110,-40 50,550 -240,3690 -230,3990 10,300 90,5030 390,5900 881.9,441.4 1658.4,477.8 1929.2,378.9 270.8,-98.9 1810.8,-638.9 1810.8,-638.9"
         style="fill:#292f52;fill-opacity:1;fill-rule:nonzero;stroke:none"
         id="path78" /><path
         d="m 17316.5,20986.9 c -2.8,389.4 -5.7,742.9 29.6,797.1 35.2,54.3 710.8,90.3 749.8,-23.3 39.2,-113.7 65,-975.9 25.5,-1114.3 -39.4,-138.4 -284.2,-227.9 -416.4,-93.5 -132.1,134.4 -388.5,434 -388.5,434"
         style="fill:#292f52;fill-opacity:1;fill-rule:nonzero;stroke:none"
         id="path80" /><path
         d="m 18024,20052.7 c 199.5,283.2 328.1,656.5 143.4,695.3 -314.9,66.2 -345.8,541.5 -578.4,506.9 -181.1,-26.9 -449.8,-307.2 -351.1,-613.2 98.7,-306.1 190.1,-510.8 180.1,-657.7 -10,-146.9 606,68.7 606,68.7"
         style="fill:#ffb29e;fill-opacity:1;fill-rule:nonzero;stroke:none"
         id="path82" /><path
         d="m 19196.9,19601.5 c -238.8,656.5 180,1830 190,2397.7 10,567.6 -450,1712.3 340,2032.3 0,0 449.2,170 799.6,-470 350.4,-640 550.4,-3060 -179.6,-3730 -730,-670 -1070,-450 -1150,-230"
         style="fill:#292f52;fill-opacity:1;fill-rule:nonzero;stroke:none"
         id="path84" /><path
         d="m 19296.9,20187.8 c -342.5,-561.6 -680,-1273.3 -680,-1273.3 0,0 -411.9,1168.3 -480.3,1303.3 -308,93.5 -653.1,-101.2 -726.8,-254 152.1,-677.8 436.6,-1914.3 715.1,-2168.9 452,-413.4 1190.6,121.9 1585.3,533.3 394.7,411.4 366,1229.4 81,1450.5 -285,221.1 -494.3,409.1 -494.3,409.1"
         style="fill:#ff546b;fill-opacity:1;fill-rule:nonzero;stroke:none"
         id="path86" /><path
         d="m 18284,17691.3 c -123,40.8 -222.5,124.7 -276.8,265.4 39.1,-70.6 78.4,-125.9 117.7,-161.8 49.8,-45.6 103.1,-79.7 159.1,-103.6"
         style="fill:#da99c3;fill-opacity:1;fill-rule:nonzero;stroke:none"
         id="path88" /><path
         d="m 18490.9,17660.6 c -73.3,0 -143.2,9.6 -206.9,30.7 -56,23.9 -109.3,58 -159.1,103.6 -39.3,35.9 -78.6,91.2 -117.7,161.8 -0.1,0 -0.1,0 -0.1,0.1 94.3,-46.3 173.4,-66.7 239.7,-66.7 217.4,0 296.3,219.5 316.8,464.7 26.3,315.6 428.4,1123.9 439.6,1146.3 -166.6,-476.5 -314.7,-1048.5 -236.3,-1259.6 74.4,-200.5 175.1,-318.9 236.3,-456.8 -165.1,-75.4 -347.2,-124.1 -512.3,-124.1"
         style="fill:#f03754;fill-opacity:1;fill-rule:nonzero;stroke:none"
         id="path90" /><path
         d="m 20246.9,20701.5 c -460,-120 -783,-260.4 -950,-513.7 -167.1,-253.3 -660,-1596.3 -530,-1946.3 130,-350 340,-450 280,-840 -60,-390 -270,-1240 -250,-1400 800,-730 3250,-640 3910,-370 0,460 -330,1180 -260,1720 70,540 150,3306.4 -610,3350 -760,43.6 -1590,0 -1590,0"
         style="fill:#ff335d;fill-opacity:1;fill-rule:nonzero;stroke:none"
         id="path92" /><path
         d="m 22575.1,15578.9 c -0.6,2.5 -1.1,4.8 -1.6,7.2 50.1,14.5 94.8,29.6 133.4,45.4 v 0 c -37.9,-19.4 -82.1,-36.9 -131.8,-52.6"
         style="fill:#da99c3;fill-opacity:1;fill-rule:nonzero;stroke:none"
         id="path94" /><path
         d="m 22015.9,15482.4 c 220.5,26.2 411.9,61.8 557.6,103.7 0.5,-2.4 1,-4.7 1.6,-7.2 -146.8,-46.4 -341.1,-77.3 -559.2,-96.5 m -2035.6,45.5 c -87.8,12.5 -174.8,30.3 -262.7,53.9 85.2,-20.3 173,-38.2 262.7,-53.9"
         style="fill:#271f41;fill-opacity:1;fill-rule:nonzero;stroke:none"
         id="path96" /><path
         d="m 22443.9,17042.6 c -9.1,105.2 -9.7,207.4 2.3,303.8 -0.1,-1 -0.1,-1.9 -0.2,-2.8 -7.7,-104.1 -7.8,-204.2 -2.1,-301"
         style="fill:#da99c3;fill-opacity:1;fill-rule:nonzero;stroke:none"
         id="path98" /><path
         d="m 21321.9,15455.6 c -525.9,0 -1053.5,37.1 -1339.2,71.9 -0.8,0.2 -1.6,0.3 -2.4,0.4 -89.7,15.7 -177.5,33.6 -262.7,53.9 -263.8,70.4 -536.8,192 -869,375.9 405,96.1 1101.6,677.1 1993.3,1463.8 -400,946.7 -315.4,1961.3 151.7,2854 0,0 956.6,-1001.1 1156.6,-1694.4 62.7,-217.1 336.7,-675.4 296,-1234.7 -12,-96.4 -11.4,-198.6 -2.3,-303.8 30.7,-525.6 228.7,-956.2 263,-1411.1 -38.6,-15.8 -83.3,-30.9 -133.4,-45.4 -145.7,-41.9 -337.1,-77.5 -557.6,-103.7 -215.7,-19.1 -454.6,-26.8 -694,-26.8"
         style="fill:#f02249;fill-opacity:1;fill-rule:nonzero;stroke:none"
         id="path100" /><path
         d="m 20110.2,20888.2 c 0,0 40,-360 0,-520 320,-306.7 893.3,-186.7 1146.7,93.3 253.3,280 226.6,853.4 0,960 -226.7,106.7 -1146.7,-533.3 -1146.7,-533.3"
         style="fill:#ffb29e;fill-opacity:1;fill-rule:nonzero;stroke:none"
         id="path102" /><path
         d="m 20127.6,20536.9 c 0,0 532.8,114.1 646,329.3 -191.7,90.3 -663.4,22 -663.4,22 l 17.4,-351.3"
         style="fill:#ff7d71;fill-opacity:1;fill-rule:nonzero;stroke:none"
         id="path104" /><path
         d="m 19523.5,22648.2 c -106.6,-1586.7 239.6,-2145.8 1200,-1800 333.4,120 746.7,266.6 813.4,640 66.6,373.3 -151.9,1986.7 -1016,1733.3 -864,-253.3 -997.4,-573.3 -997.4,-573.3"
         style="fill:#ffb29e;fill-opacity:1;fill-rule:nonzero;stroke:none"
         id="path106" /><path
         d="m 19292.7,15834.6 c -275,-12.4 -668.9,171.6 -547.1,-173.5 -278.9,46 -770,-179.3 -548.4,-485.4 103.6,-143.1 474.9,-513.6 750.4,-354.3 340.7,196.8 561.1,391.1 641.2,425.6 -20,287.6 -296.1,587.6 -296.1,587.6"
         style="fill:#ffb29e;fill-opacity:1;fill-rule:nonzero;stroke:none"
         id="path108" /><path
         d="m 22390.2,17381.5 c 53.4,-440 -266.6,-973.3 -493.3,-1106.7 -226.7,-133.3 -1960,-1026.6 -2391.9,-1160 -125.3,146.7 -418.9,440 -285.5,813.4 124.1,66.8 2010.7,1146.6 2117.4,1717.7 l 1053.3,-264.4"
         style="fill:#ff546b;fill-opacity:1;fill-rule:nonzero;stroke:none"
         id="path110" /><path
         d="m 21073.6,21943.4 c -706.7,-381.9 -1090.9,663.1 -1559.5,543.3 l 9.4,161.5 c 0,0 418.4,193.3 538.4,143.3 120,-50 1011.7,-848.1 1011.7,-848.1"
         style="fill:#ff7d71;fill-opacity:1;fill-rule:nonzero;stroke:none"
         id="path112" /><path
         d="m 19523.5,22648.2 c 383.4,93.3 783.1,-506.6 1053.4,-649 470,-247.7 690,162.3 780,-107.7 57,-171 40,-540 -270,-670 77.1,-844.9 -426.5,-1700 -313.3,-2560 71.1,-539.9 583.3,-1640.5 1613.3,-1640 1071.7,0.6 1535.5,1582.7 1380,2450 -260,1450 -1200,1740 -1530,3050 -256.5,1018.2 -671.1,1393.8 -1150,1360 -710,-50 -1030,260 -1360,150 -118.9,-39.6 -280,-496.3 -280,-783.1 0,-286.9 76.6,-600.2 76.6,-600.2"
         style="fill:#292f52;fill-opacity:1;fill-rule:nonzero;stroke:none"
         id="path114" /><path
         d="m 19000.5,17844.4 c 37.5,-71.9 83.4,-190.6 79.2,-335.2 86.2,87.2 259.2,96.2 439.8,105.5 43,2.2 86.5,4.5 129.2,7.8 -186,19.9 -422.7,88.2 -648.2,221.9 z m 65.9,-447 -39.2,7.7 c 0.5,3 1.1,6 1.8,8.9 52.4,269.7 -104.4,478.6 -106.1,480.7 l -73,95.5 100,-66.7 c 383.1,-255.3 816.4,-306.6 969.5,-244.4 l 15.9,-36.7 c -113.1,-52.1 -266,-60 -413.8,-67.7 -216,-11.1 -420.2,-21.7 -453.5,-169.5 -0.5,-2.6 -1,-5.2 -1.6,-7.8"
         style="fill:#e50695;fill-opacity:1;fill-rule:nonzero;stroke:none"
         id="path116" /><path
         d="m 18512.4,8532.2 c -11.6,1.3 -23.2,2.8 -34.8,4.2 -32.9,4.1 -56.2,34.1 -52.1,67 3.8,30.3 29.4,52.6 59.2,52.6 2.6,0 5.2,-0.2 7.8,-0.5 3.6,-0.5 7.2,-0.9 10.8,-1.4 3,-40.3 6,-81 9.1,-121.9 m 1431.6,15.1 c 3,40.8 6,81.5 8.9,122.1 52,6.7 104.7,14.1 157.5,22.2 3,0.4 6,0.6 8.9,0.6 29.1,0 54.9,-21.2 59.4,-50.9 5,-32.7 -17.5,-63.4 -50.3,-68.3 -61.8,-9.5 -123.8,-18.1 -184.4,-25.7 m -1735.5,31.8 c -3.7,0 -7.4,0.3 -11.1,1 -66.9,12.5 -133.7,26.5 -198.4,41.6 -32.2,7.6 -52.3,39.8 -44.7,72.1 6.5,27.7 31.3,46.3 58.5,46.3 4.5,0 9,-0.5 13.6,-1.5 62.9,-14.8 127.8,-28.4 193,-40.6 32.6,-6 54.1,-37.4 48,-69.9 -5.4,-28.9 -30.6,-49 -58.9,-49 m 2186.8,40.7 c -28.2,0 -53.4,20 -58.9,48.8 -6.2,32.5 15.1,63.9 47.7,70.2 64.5,12.3 129.3,25.7 194.3,39.9 4.4,1 8.7,1.5 13,1.5 27.5,0 52.3,-19.3 58.4,-47.3 7.1,-32.4 -13.4,-64.3 -45.8,-71.5 -66,-14.4 -131.9,-27.9 -197.4,-40.5 -3.7,-0.7 -7.6,-1.1 -11.3,-1.1 m -2652.8,73 c -5.9,0 -11.8,0.9 -17.6,2.7 -64.6,19.8 -129.4,41.4 -192.6,64.3 -31.1,11.3 -47.2,45.7 -35.9,76.8 8.8,24.4 31.9,39.7 56.4,39.7 6.8,0 13.7,-1.2 20.4,-3.7 61.3,-22.2 124.1,-43.2 186.8,-62.4 31.7,-9.7 49.5,-43.2 39.8,-74.9 -7.9,-25.8 -31.7,-42.5 -57.3,-42.5 m 3121.1,32 c -26.8,0 -51.2,18 -58.1,45.1 -8.2,32.1 11.1,64.8 43.2,73 63.8,16.3 127.7,33.5 191.8,51.6 5.4,1.5 10.8,2.2 16.2,2.2 26.2,0 50.4,-17.3 57.8,-43.8 9,-31.9 -9.6,-65 -41.5,-74 -65,-18.3 -129.8,-35.7 -194.5,-52.3 -5,-1.2 -10,-1.8 -14.9,-1.8 m -3570.2,136.7 c -8.2,0 -16.6,1.7 -24.6,5.3 -61.9,28 -123.4,57.9 -183,88.9 -29.4,15.4 -40.8,51.6 -25.5,81 10.7,20.5 31.6,32.2 53.3,32.2 9.3,0 18.8,-2.1 27.7,-6.7 57.5,-30.1 117.1,-59 176.9,-86 30.2,-13.6 43.6,-49.2 30,-79.4 -10.1,-22.2 -31.9,-35.3 -54.8,-35.3 m -422.5,227.1 c -11,0 -22.1,3 -32.1,9.3 -57.3,36.4 -114.1,74.8 -168.6,114.3 -26.8,19.4 -32.8,56.9 -13.4,83.8 11.7,16.2 30.1,24.8 48.7,24.8 12.2,0 24.5,-3.7 35.1,-11.4 52.5,-38 107.2,-75.1 162.4,-110.1 28,-17.7 36.4,-54.8 18.6,-82.8 -11.4,-18 -30.8,-27.9 -50.7,-27.9 m -384.6,286.1 c -14,0 -28,4.9 -39.3,14.8 -51.1,44.4 -101.4,91 -149.4,138.5 -23.5,23.3 -23.7,61.3 -0.4,84.9 11.7,11.8 27.2,17.8 42.6,17.8 15.3,0 30.5,-5.8 42.2,-17.4 46.2,-45.7 94.6,-90.5 143.7,-133.3 25,-21.8 27.6,-59.6 5.9,-84.6 -11.9,-13.7 -28.5,-20.7 -45.3,-20.7 m 6215.7,34.4 c -2.1,43.7 -4.3,87.4 -6.6,130.7 38.4,19.2 76.9,38.6 115.3,58.4 8.7,4.5 18.1,6.6 27.3,6.6 21.8,0 42.9,-11.9 53.5,-32.6 15.1,-29.4 3.5,-65.6 -26,-80.8 -54.4,-28 -109,-55.4 -163.5,-82.3 m 383.5,206.9 c -21.2,0 -41.7,11.3 -52.7,31.2 -15.9,29.1 -5.2,65.5 23.9,81.4 57.9,31.8 115.8,64.1 173.6,97.1 9.3,5.4 19.5,7.9 29.6,7.9 20.8,0 41.1,-10.8 52.2,-30.2 16.5,-28.8 6.5,-65.4 -22.3,-81.9 -58.4,-33.3 -117,-66.1 -175.5,-98.1 -9.2,-5 -19,-7.4 -28.8,-7.4 m -6935.4,100.4 c -17,0 -34,7.2 -45.9,21.3 -43.5,51.7 -85.9,105.5 -126.1,160 -19.7,26.7 -14.1,64.2 12.6,83.9 10.7,7.9 23.2,11.7 35.6,11.7 18.4,0 36.6,-8.4 48.3,-24.3 38.7,-52.5 79.5,-104.3 121.4,-154 21.3,-25.4 18.1,-63.2 -7.3,-84.5 -11.2,-9.5 -24.9,-14.1 -38.6,-14.1 m 7351.4,139.1 c -20.3,0 -40.1,10.4 -51.4,29 -17.1,28.4 -8.1,65.2 20.3,82.4 56.5,34.2 113,69 169.3,104.4 9.9,6.3 21,9.2 31.9,9.2 20,0 39.5,-9.9 50.9,-28 17.6,-28 9.2,-65.1 -18.9,-82.7 -56.9,-35.9 -114,-71 -171.1,-105.6 -9.7,-5.9 -20.4,-8.7 -31,-8.7 m 405.3,257.1 c -19.4,0 -38.4,9.4 -50,26.8 -18.3,27.6 -10.8,64.9 16.8,83.2 55.1,36.5 110,73.7 164.9,111.4 10.4,7.1 22.2,10.5 34,10.5 19,0 37.8,-9 49.4,-25.9 18.8,-27.3 11.9,-64.7 -15.4,-83.4 -55.4,-38.2 -110.9,-75.7 -166.5,-112.6 -10.2,-6.8 -21.8,-10 -33.2,-10 m 394.5,273.5 c -18.6,0 -36.9,8.6 -48.6,24.8 -19.5,26.9 -13.5,64.4 13.4,83.8 53.5,38.7 106.9,78.1 160.2,118 10.8,8.1 23.4,12 35.9,12 18.3,0 36.3,-8.3 48.1,-24 19.9,-26.5 14.5,-64.1 -12.1,-84 -53.7,-40.3 -107.7,-80.1 -161.8,-119.2 -10.6,-7.7 -22.9,-11.4 -35.1,-11.4 m 383,289.2 c -17.7,0 -35.3,7.9 -47.2,22.9 -20.5,26.1 -15.9,63.8 10.1,84.3 52,40.9 103.8,82.3 155.4,124.3 11.1,9.1 24.5,13.5 37.8,13.5 17.5,0 34.8,-7.6 46.6,-22.1 20.9,-25.7 17.1,-63.5 -8.6,-84.4 -52.2,-42.5 -104.5,-84.3 -157,-125.6 -11,-8.7 -24.1,-12.9 -37.1,-12.9 m 371.3,304.2 c -17,0 -33.8,7.2 -45.7,21.1 -21.5,25.2 -18.5,63.1 6.8,84.6 50.3,42.9 100.4,86.4 150.4,130.4 11.4,10 25.5,14.9 39.6,14.9 16.7,0 33.2,-6.9 45.1,-20.3 21.9,-24.9 19.5,-62.9 -5.4,-84.7 -50.4,-44.4 -101,-88.3 -151.9,-131.6 -11.3,-9.6 -25.1,-14.4 -38.9,-14.4 m 359.2,318.4 c -16.2,0 -32.3,6.5 -44.1,19.3 -22.5,24.4 -20.9,62.3 3.4,84.8 48.7,44.8 97.1,90.1 145.4,136 11.5,11.1 26.4,16.6 41.3,16.6 15.9,0 31.7,-6.3 43.5,-18.7 22.8,-24 21.9,-62 -2.1,-84.8 -48.7,-46.3 -97.6,-92.1 -146.7,-137.4 -11.6,-10.6 -26.2,-15.8 -40.7,-15.8 m 346.8,331.9 c -15.5,0 -30.9,5.9 -42.6,17.7 -23.4,23.5 -23.2,61.5 0.3,84.9 46.9,46.6 93.6,93.7 140,141.4 11.8,12 27.4,18.1 43,18.1 15.1,0 30.2,-5.7 41.8,-17 23.7,-23.1 24.3,-61.1 1.1,-84.9 -46.8,-48.1 -94,-95.7 -141.4,-142.8 -11.6,-11.6 -27,-17.4 -42.2,-17.4"
         style="fill:#252b4f;fill-opacity:1;fill-rule:nonzero;stroke:none"
         id="path118" /><path
         d="m 26095.5,11974.6 c -14.7,0 -29.4,5.3 -41,16.1 -5,4.7 -9.1,10.1 -12.2,16 -1.4,15 -2.8,29.8 -4.4,44.9 2.6,8.7 7.1,16.9 13.7,23.9 45.1,48.4 90,97.3 134.6,146.6 11.8,13.1 28.2,19.8 44.6,19.8 14.3,0 28.7,-5.1 40.1,-15.5 24.6,-22.2 26.5,-60.1 4.3,-84.7 -45,-49.9 -90.3,-99.2 -135.9,-148.1 -11.8,-12.6 -27.8,-19 -43.8,-19"
         style="fill:#272d52;fill-opacity:1;fill-rule:nonzero;stroke:none"
         id="path120" /><path
         d="m 26042.3,12006.7 c -7.3,13.8 -8.8,30 -4.4,44.9 1.6,-15.1 3,-29.9 4.4,-44.9"
         style="fill:#252b4f;fill-opacity:1;fill-rule:nonzero;stroke:none"
         id="path122" /><path
         d="m 26416.1,12331.6 c -14,0 -27.9,4.9 -39.3,14.7 -25,21.7 -27.8,59.6 -6.1,84.6 43.3,50 86.3,100.6 129.1,151.6 11.8,14.1 28.8,21.4 46,21.4 13.6,0 27.2,-4.6 38.5,-14 25.4,-21.2 28.7,-59.1 7.4,-84.5 -43.1,-51.5 -86.5,-102.5 -130.2,-153 -11.9,-13.7 -28.6,-20.8 -45.4,-20.8 m 307.1,368.9 c -13.1,0 -26.4,4.3 -37.5,13.2 -25.8,20.7 -30,58.5 -9.2,84.3 41.4,51.7 82.5,103.8 123.3,156.3 11.8,15.3 29.5,23.2 47.4,23.2 12.9,0 25.8,-4.1 36.8,-12.6 26.2,-20.4 30.9,-58.1 10.6,-84.2 -41.2,-53 -82.7,-105.6 -124.5,-157.7 -11.9,-14.8 -29.3,-22.5 -46.9,-22.5"
         style="fill:#272d52;fill-opacity:1;fill-rule:nonzero;stroke:none"
         id="path124" /><path
         d="m 19147.4,8495.7 c -62.8,0 -125.2,1.1 -186,3.1 -33.1,1 -59.1,28.7 -58,61.9 1.1,32.2 27.1,58 59.4,58 0.8,0 1.7,0 2.6,0 59.4,-2 120.5,-3 181.6,-3 l 16.4,0.1 c 33.1,0 60,-26.9 60,-60 0,-33.1 -26.9,-60 -60,-60 l -16,-0.1 m 295.8,7.5 c -31.8,0 -58.3,24.9 -59.9,57 -1.6,33.1 23.9,61.2 57,62.9 64.7,3.2 131.2,7.6 197.6,13 1.5,0.1 2.9,0.1 4.3,0.1 31.1,0 57.8,-23.5 60.4,-55.1 2.7,-33 -21.9,-62 -55,-64.6 -67.6,-5.5 -135.4,-10 -201.4,-13.3 -1,0 -2,0 -3,0 m -759.3,11.8 c -1.7,0 -3.4,0.1 -5.1,0.3 -55.2,4.7 -111,10.3 -166.4,16.9 -3.1,40.9 -6.1,81.6 -9.1,121.9 61.6,-7.5 124.1,-14 185.7,-19.3 33,-2.8 57.5,-31.8 54.7,-64.8 -2.7,-31.3 -28.9,-55 -59.8,-55 m 1237.3,29.9 c -29.9,0 -55.7,22.2 -59.5,52.6 -4,32.9 19.3,62.9 52.2,66.9 13,1.6 26,3.3 39,5 -2.9,-40.6 -5.9,-81.3 -8.9,-122.1 -5.1,-0.7 -10.3,-1.3 -15.4,-2 -2.5,-0.3 -4.9,-0.4 -7.4,-0.4 M 21325,8857 c -25.5,0 -49.1,16.3 -57.2,41.9 -10,31.5 7.5,65.3 39.1,75.2 62.8,19.9 125.6,40.6 188.6,62.2 6.5,2.2 13.1,3.3 19.6,3.3 24.9,0 48.1,-15.8 56.6,-40.7 10.8,-31.4 -6,-65.5 -37.3,-76.2 -63.9,-21.8 -127.7,-42.8 -191.3,-62.9 -6,-1.9 -12.1,-2.8 -18.1,-2.8 m 453.6,156.9 c -24.3,0 -47.2,14.9 -56.2,39 -11.7,31 4,65.6 35.1,77.2 61.7,23.2 123.5,47.1 185.3,71.9 7.3,2.9 14.9,4.2 22.3,4.2 23.8,0 46.3,-14.2 55.7,-37.7 12.3,-30.7 -2.7,-65.6 -33.5,-78 -62.6,-25 -125.1,-49.2 -187.7,-72.7 -6.9,-2.6 -14,-3.9 -21,-3.9 m 445,180 c -23.2,0 -45.3,13.5 -55.1,36.2 -13.2,30.4 0.8,65.7 31.2,78.9 60.5,26.2 121.1,53.1 181.6,80.8 8.1,3.7 16.6,5.5 25,5.5 22.7,0 44.5,-13.1 54.6,-35.1 13.8,-30.2 0.5,-65.7 -29.7,-79.5 -61.3,-28 -122.5,-55.3 -183.8,-81.9 -7.8,-3.3 -15.9,-4.9 -23.8,-4.9 m 435.8,201.1 c -22.2,0 -43.5,12.4 -53.9,33.6 -14.6,29.8 -2.3,65.7 27.5,80.3 20.8,10.2 41.6,20.5 62.4,30.9 2.3,-43.3 4.5,-87 6.6,-130.7 -5.4,-2.6 -10.8,-5.3 -16.2,-7.9 -8.5,-4.2 -17.5,-6.2 -26.4,-6.2"
         style="fill:#07091a;fill-opacity:1;fill-rule:nonzero;stroke:none"
         id="path126" /></g></g></svg>
