<?xml version="1.0" encoding="UTF-8" standalone="no"?>
<!-- Created with Inkscape (http://www.inkscape.org/) -->

<svg
   version="1.1"
   id="svg2"
   xml:space="preserve"
   width="5333.3335"
   height="3555.5601"
   viewBox="0 0 5333.3335 3555.5601"
   sodipodi:docname="vecteezy_digital-marketing-modern-flat-concept-for-web-banner-design_5868381.eps"
   xmlns:inkscape="http://www.inkscape.org/namespaces/inkscape"
   xmlns:sodipodi="http://sodipodi.sourceforge.net/DTD/sodipodi-0.dtd"
   xmlns="http://www.w3.org/2000/svg"
   xmlns:svg="http://www.w3.org/2000/svg"><defs
     id="defs6"><clipPath
       clipPathUnits="userSpaceOnUse"
       id="clipPath24"><path
         d="M 30468.5,2035.2 H 16059 l -4059.6,11517.1 4059.6,4197.5 h 14409.5 z"
         id="path22" /></clipPath></defs><sodipodi:namedview
     id="namedview4"
     bordercolor="#666666"
     borderopacity="1.0"
     inkscape:pageshadow="2"
     inkscape:pageopacity="0.0"
     inkscape:pagecheckerboard="0" /><g
     id="g8"
     inkscape:groupmode="layer"
     inkscape:label="ink_ext_XXXXXX"
     transform="matrix(1.3333333,0,0,-1.3333333,0,3555.56)"><g
       id="g10"
       transform="scale(0.1)"><path
         d="m 23143.3,22007.2 c -3599.6,-760.5 -3063.5,-4965 -9260.6,-7324.5 -6642.21,-2528.9 -2619.2,-12069.3 4937.9,-12612.3 7521.8,-540.7 10990.6,2850.9 11762.8,9296.4 580.6,4846.5 -2090.9,11770.5 -7440.1,10640.4"
         style="fill:#ecf2fa;fill-opacity:1;fill-rule:nonzero;stroke:none"
         id="path14" /><path
         d="m 14682.8,15547.2 c 1614.4,554.7 4061.4,3147.2 3176.5,6050.9 -884.9,2903.7 -7942.5,-7688.6 -3176.5,-6050.9"
         style="fill:#ecf2fa;fill-opacity:1;fill-rule:nonzero;stroke:none"
         id="path16" /><g
         id="g18"><g
           id="g20"
           clip-path="url(#clipPath24)"><path
             d="m 30380.9,15926.5 v -20524 c 0,-860.3 -700.2,-1561.2 -1561.2,-1561.2 h -4105.8 v 3.1 h -5180.3 c -338.1,20.1 -647.5,148.5 -893.6,349.7 -350.4,286.9 -574,721.8 -574,1208.4 v 20524 c 0,861.1 700.9,1561.2 1561.2,1561.2 h 9192.5 c 861,0 1561.2,-700.1 1561.2,-1561.2"
             style="fill:#101c3a;fill-opacity:1;fill-rule:nonzero;stroke:none"
             id="path26" /><path
             d="M 30033.8,15927 V -4597.7 c 0,-670.3 -543.5,-1213.8 -1214.4,-1213.8 h -9192.3 c -670.3,0 -1213.8,543.5 -1213.8,1213.8 V 15927 c 0,670.2 543.5,1213.7 1213.8,1213.7 h 9192.3 c 670.9,0 1214.4,-543.5 1214.4,-1213.7"
             style="fill:#ebf1fd;fill-opacity:1;fill-rule:nonzero;stroke:none"
             id="path28" /><path
             d="m 25671,16938.5 h -2861.8 c -63.8,0 -115.6,-51.8 -115.6,-115.6 0,-63.9 51.8,-115.7 115.6,-115.7 H 25671 c 63.9,0 115.7,51.8 115.7,115.7 0,63.8 -51.8,115.6 -115.7,115.6"
             style="fill:#101c3a;fill-opacity:1;fill-rule:nonzero;stroke:none"
             id="path30" /><path
             d="m 19519.8,15630.3 -48.6,48.5 383.5,383.5 48.5,-48.5 -383.4,-383.5"
             style="fill:#101c3a;fill-opacity:1;fill-rule:nonzero;stroke:none"
             id="path32" /><path
             d="m 19854.7,15630.3 -383.5,383.5 48.6,48.5 383.4,-383.5 -48.5,-48.5"
             style="fill:#101c3a;fill-opacity:1;fill-rule:nonzero;stroke:none"
             id="path34" /><path
             d="m 28944,15685.4 h -615.2 v 68.7 h 615.2 v -68.7"
             style="fill:#361e4d;fill-opacity:1;fill-rule:nonzero;stroke:none"
             id="path36" /><path
             d="m 21993.4,7320.6 c 0,0 1329.1,-1261.4 2069.6,-1586 470.6,-206.2 -393.3,-1102.4 -393.3,-1102.4 0,0 501.8,-1083.1 591.6,-1251.4 715.4,-1338.8 2200.2,-3659.8 2993.3,-5144 840.8,-1573.7 -1929.2,-4647.4 -3262.9,-1797.4 -692.3,1479.3 -1450.8,5360.1 -1804.9,7038.8 l -267.5,798.3 v 0 c -99.6,203.2 -248.5,448.9 -473.3,745.3 -849.9,1120.9 547.4,2298.8 547.4,2298.8"
             style="fill:#f8a3a2;fill-opacity:1;fill-rule:nonzero;stroke:none"
             id="path38" /><path
             d="m 21018.5,4740.1 c -305.9,-272.8 -787.6,-714.9 -776.2,-1111.9 11.5,-397.2 1536.3,-196.8 1536.3,-196.8 l 3680.1,5559.5 -2308.4,457.8 c 0,0 -1826,-4435.6 -2131.8,-4708.6"
             style="fill:#101c3a;fill-opacity:1;fill-rule:nonzero;stroke:none"
             id="path40" /><path
             d="m 21824.7,4078.3 2708.9,4234.5 -64.3,41.2 -2708.9,-4234.6 64.3,-41.1"
             style="fill:#ffffff;fill-opacity:1;fill-rule:nonzero;stroke:none"
             id="path42" /><path
             d="M 27109.7,10210.9 20946.9,16286 17534.2,9629.1 26018.3,8081.9 c 331.2,-169.8 844.1,169.1 1145.4,757.1 301.4,587.9 277.2,1202.1 -54,1371.9"
             style="fill:#425fec;fill-opacity:1;fill-rule:nonzero;stroke:none"
             id="path44" /><path
             d="m 27109.7,10210.9 -789.1,777.9 c 21.6,-595.9 -106.1,-1786.9 -1282.1,-2728.2 l 979.8,-178.7 c 331.2,-169.8 844.1,169.1 1145.4,757.1 301.4,587.9 277.2,1202.1 -54,1371.9"
             style="fill:#101c3a;fill-opacity:1;fill-rule:nonzero;stroke:none"
             id="path46" /><path
             d="m 20964.6,16542.4 c -210.3,107.6 -440.9,170.6 -685.4,186.5 -1185.7,77.5 -2580.1,-972.9 -3391.1,-2554.4 -1014.5,-1979.3 -813.7,-4040.3 457.1,-4692.3 210.3,-107.7 440.9,-170.6 685.4,-186.6 1185.7,-77.4 2580.1,973.2 3391.1,2554.7 1014.8,1979.5 813.8,4040.5 -457.1,4692.1"
             style="fill:#390d9f;fill-opacity:1;fill-rule:nonzero;stroke:none"
             id="path48" /><path
             d="m 20827.1,16274.2 c -1111.3,569.7 -2760.9,-428.8 -3684.4,-2230.3 -923.6,-1801.5 -771.3,-3723.8 339.9,-4293.5 1111.3,-569.7 2761,428.8 3684.5,2230.4 923.5,1801.4 771.3,3723.7 -340,4293.4"
             style="fill:#cfe0fa;fill-opacity:1;fill-rule:nonzero;stroke:none"
             id="path50" /><path
             d="m 20761.6,16266.7 c -1091.5,505.9 -2687.8,-484.4 -3587.3,-2239 -913.1,-1781.2 -767.5,-3685.8 324.5,-4245.7 1088.1,-560.7 2723.5,433.7 3636.6,2214.9 913.2,1781.2 767.6,3685.8 -324.5,4245.6 -16.2,8.4 -32.8,16.5 -49.3,24.2 z M 17517.9,9693.6 c -17.3,8.1 -34.5,16.4 -51.5,25.1 -1127,577.8 -1286.3,2525.3 -355.4,4341.4 931,1816.3 2606.6,2823.5 3732.4,2245.8 v 0 c 1127,-577.8 1286.3,-2525.3 355.4,-4341.3 -916.9,-1788.7 -2554.8,-2792.9 -3680.9,-2271"
             style="fill:#101c3a;fill-opacity:1;fill-rule:nonzero;stroke:none"
             id="path52" /><path
             d="m 20020.5,13412.8 -544.9,-1199 1101.2,-1159.8 c 217.3,276.8 415.7,586.2 589.9,926.1 189.4,370.3 334.3,743.6 431.6,1109.5 l -1509.7,323.9 -68.1,-0.7"
             style="fill:#101c3a;fill-opacity:1;fill-rule:nonzero;stroke:none"
             id="path54" /><path
             d="m 20089.5,13413.2 c -186.6,95.6 -475.4,-95.3 -645.1,-426.4 -169.8,-331.1 -156.2,-677 30.4,-772.6 186.5,-95.7 475.3,95.2 645.1,426.3 169.7,331.1 156.1,677 -30.4,772.7"
             style="fill:#425fec;fill-opacity:1;fill-rule:nonzero;stroke:none"
             id="path56" /><path
             d="m 17384.8,15755 116,93.8 -921.6,1140.4 -116.1,-93.9 921.7,-1140.3"
             style="fill:#101c3a;fill-opacity:1;fill-rule:nonzero;stroke:none"
             id="path58" /><path
             d="m 13205.1,11141.4 2789.9,247.1 -13.1,148.8 -2789.8,-247.1 13,-148.8"
             style="fill:#101c3a;fill-opacity:1;fill-rule:nonzero;stroke:none"
             id="path60" /><path
             d="m 15863.3,12909.3 33.9,145.4 -1036.6,242.5 -33.9,-145.3 1036.6,-242.6"
             style="fill:#101c3a;fill-opacity:1;fill-rule:nonzero;stroke:none"
             id="path62" /><path
             d="m 16000.8,13372 58.2,137.5 -2424.4,1026.8 -58.2,-137.5 2424.4,-1026.8"
             style="fill:#101c3a;fill-opacity:1;fill-rule:nonzero;stroke:none"
             id="path64" /><path
             d="m 21536.9,7135.2 c -692,-124.4 -304,-823.1 -304,-823.1 -589.6,-161 -350,-697.2 -350,-697.2 -115.1,-146.4 -181,-286.4 -213.9,-416.2 30.2,-120.3 402.7,-438.6 756.5,-164 353.8,274.6 74.4,551.4 74.4,551.4 356.4,-27.7 603.1,255.3 611.5,415.3 8,157.1 -281.3,301.1 -293,306.8 11.6,1.6 272.9,38.5 409.8,299.3 136.5,259.9 -144.3,489.3 -158.2,500.8 165.7,-29.7 277.5,-22.9 362.5,10 124.5,47.7 190.5,150.9 281.2,276.1 152.6,210.6 -85.5,722.3 -799.4,490.7 -713.9,-231.7 -377.4,-749.9 -377.4,-749.9"
             style="fill:#f8a3a2;fill-opacity:1;fill-rule:nonzero;stroke:none"
             id="path66" /><path
             d="m 21795.3,6312.9 c -79.3,44.5 -169.8,67.7 -261.1,74.2 -45.7,3.4 -92,0.5 -137.1,-7.6 -45.4,-7.1 -88.8,-24.2 -128.9,-44.8 44.4,10 87.7,19 132,22.2 44,3.2 88.1,4.7 132.2,1 44,-2.7 87.9,-8.4 131.7,-15.9 43.7,-8.2 87.5,-17.2 131.2,-29.1"
             style="fill:#d17f80;fill-opacity:1;fill-rule:nonzero;stroke:none"
             id="path68" /><path
             d="m 21464.4,5602.4 c -79.4,44.6 -169.9,67.8 -261.1,74.3 -45.8,3.3 -92,0.4 -137.2,-7.6 -45.3,-7.1 -88.7,-24.2 -128.8,-44.8 44.3,10 87.7,18.9 131.9,22.2 44,3.1 88.2,4.6 132.2,1 44,-2.7 87.9,-8.4 131.7,-16 43.7,-8.1 87.5,-17.1 131.3,-29.1"
             style="fill:#d17f80;fill-opacity:1;fill-rule:nonzero;stroke:none"
             id="path70" /><path
             d="m 22069.3,7108.6 c -79.4,44.5 -170,67.7 -261.2,74.3 -45.7,3.3 -92,0.4 -137.1,-7.7 -45.3,-7.1 -88.7,-24.2 -128.8,-44.8 44.3,10 87.7,19 131.9,22.2 44,3.2 88.1,4.7 132.2,1 44,-2.6 87.9,-8.4 131.7,-15.9 43.8,-8.2 87.5,-17.2 131.3,-29.1"
             style="fill:#d17f80;fill-opacity:1;fill-rule:nonzero;stroke:none"
             id="path72" /><path
             d="m 23564,4932.6 c 0,0 615.6,21 743,744.3 127.5,723.2 214.7,1016.4 491,1380.6 276.2,364 -516.5,625.9 -1039.6,-373.8 C 23235.3,5684.2 22920.2,5508 23564,4932.6"
             style="fill:#f8a3a2;fill-opacity:1;fill-rule:nonzero;stroke:none"
             id="path74" /><path
             d="m 23776,6636.2 c -14.1,-41.6 -19.6,-86.3 -17.5,-130.9 2,-44.6 13.1,-89.4 34,-129.9 10,-20.6 24.5,-38.4 38.8,-56.2 16.9,-15.2 32.6,-31.9 52.8,-42.6 18.2,-13.4 39.8,-20.6 60.2,-29 10.2,-4.7 21.6,-5.6 32.2,-8.4 10.7,-2.5 21.5,-4.7 32.2,-6.5 -19.8,9.8 -40.7,15.9 -59.4,26.6 -18.5,10.9 -37.7,20 -53.7,33.9 -17.5,11.8 -31.4,27.6 -46,42.4 -12.3,16.7 -25.4,32.8 -34.2,51.8 -19.5,36.7 -30.9,77.7 -36.8,119.7 -5.3,42.2 -6.9,85.5 -2.6,129.1"
             style="fill:#d17f80;fill-opacity:1;fill-rule:nonzero;stroke:none"
             id="path76" /></g></g><path
         d="m 24260.4,24475.4 -11.4,-1.1 94.2,-932.8 746.1,536.3 -25.3,41 c -179.2,243.3 -479.9,388.6 -803.6,356.6"
         style="fill:#425fec;fill-opacity:1;fill-rule:nonzero;stroke:none"
         id="path78" /><path
         d="m 11426.4,11803.2 -765.3,-544.6 c 0.1,0 0.1,-0.2 0.2,-0.2 l 31.2,-49.1 c 45.5,-63.3 100.4,-124.2 172,-180 92.5,-72.3 196.7,-123.1 305.5,-152.2 l 256.4,926.1"
         style="fill:#fc721a;fill-opacity:1;fill-rule:nonzero;stroke:none"
         id="path80" /><path
         d="m 22006.3,24368 c 0,-138.6 -112.5,-251.1 -251.2,-251.1 -138.8,0 -251.1,112.5 -251.1,251.1 0,138.7 112.3,251.1 251.1,251.1 138.7,0 251.2,-112.4 251.2,-251.1"
         style="fill:#390d9f;fill-opacity:1;fill-rule:nonzero;stroke:none"
         id="path82" /><path
         d="m 15567.6,9390.3 c 0,-138.7 -112.5,-251.1 -251.1,-251.1 -138.8,0 -251.1,112.4 -251.1,251.1 0,138.7 112.3,251.1 251.1,251.1 138.6,0 251.1,-112.4 251.1,-251.1"
         style="fill:#7109b5;fill-opacity:1;fill-rule:nonzero;stroke:none"
         id="path84" /><path
         d="m 22407.2,19893.4 c 0,-138.7 -112.5,-251.1 -251.1,-251.1 -138.8,0 -251.1,112.4 -251.1,251.1 0,138.7 112.3,251.1 251.1,251.1 138.6,0 251.1,-112.4 251.1,-251.1"
         style="fill:#fc721a;fill-opacity:1;fill-rule:nonzero;stroke:none"
         id="path86" /><path
         d="m 31693.4,17555.7 c 0,-91.4 -74.1,-165.5 -165.5,-165.5 -91.4,0 -165.4,74.1 -165.4,165.5 0,91.3 74,165.4 165.4,165.4 91.4,0 165.5,-74.1 165.5,-165.4"
         style="fill:#fc721a;fill-opacity:1;fill-rule:nonzero;stroke:none"
         id="path88" /><path
         d="m 20207.9,21305.6 c -606.8,-1282.4 -2138.4,-1830 -3420.8,-1223.1 -1282.4,606.8 -1830,2138.4 -1223.1,3420.8 606.8,1282.4 2138.4,1830 3420.8,1223.2 1282.4,-606.9 1830,-2138.5 1223.1,-3420.9"
         style="fill:#fc721a;fill-opacity:1;fill-rule:nonzero;stroke:none"
         id="path90" /><path
         d="m 19076.1,23214.9 c -274.1,227.7 -646.7,235.8 -931.8,50.7 -186.3,307.5 -549.2,462.3 -903.6,355.3 -435.4,-131.5 -693.1,-608.3 -575.4,-1065.2 117.6,-456.9 1030.4,-1462.7 1030.4,-1462.7 0,0 1222.3,538.8 1504.9,914 282.8,375.3 227,916.1 -124.5,1207.9"
         style="fill:#ffffff;fill-opacity:1;fill-rule:nonzero;stroke:none"
         id="path92" /><path
         d="m 13704.1,5721.7 -2662.4,1278.4 c -80.9,38.9 -75.1,161.8 11.7,184.9 0.7,0.1 1.3,0.3 2,0.4 l 4684.8,1186.4 c 0.7,0.2 1.3,0.4 2,0.5 87.3,21 150.9,-84.4 98.2,-157 L 14123.8,5846.5 c -112.3,-155.7 -280.1,-198.2 -419.7,-124.8"
         style="fill:#425fec;fill-opacity:1;fill-rule:nonzero;stroke:none"
         id="path94" /><path
         d="M 12923.6,5815 11840.8,4270.7 c -48.5,-69.2 -155.9,-49.5 -176.6,32.4 L 11069,6653.4 c -20.5,81.2 63,149.5 138.5,113.2 l 1677.9,-805.9 c 55,-26.4 73.2,-95.8 38.2,-145.7"
         style="fill:#425fec;fill-opacity:1;fill-rule:nonzero;stroke:none"
         id="path96" /><path
         d="m 16577,5204.5 c -1.4,-13.3 -15.3,-25.6 -37.5,-34.7 L 11906.4,3996.6 c -23.7,-2.6 -41.8,1.6 -49.4,12.6 -8.7,12.8 -4.8,32.2 9.4,56.9 4.3,7.2 10.4,15.5 16.9,24.7 l 1171.4,1670.5 c 38,53.8 109.5,72.6 169.1,44.2 l 415.1,-199.1 c 102.2,-48.9 214.1,-58.1 317.1,-31.9 102.9,26 197,87.3 263.6,179 l 282.5,389.3 c 38.8,53.4 110.6,70.8 169.7,41.6 L 16515,5263.6 c 10.1,-4.8 19.4,-9.3 26.6,-13.6 24.2,-15 36.9,-30.1 35.4,-45.5"
         style="fill:#425fec;fill-opacity:1;fill-rule:nonzero;stroke:none"
         id="path98" /><path
         d="M 15981.4,7897.4 16570,5573.3 c 20.7,-81.9 -64.3,-150.4 -139.9,-112.6 L 14761.6,6294 c -54.6,27.3 -71.7,97 -35.9,146.4 l 1080,1490.6 c 49.2,67.9 155.2,47.6 175.7,-33.6"
         style="fill:#425fec;fill-opacity:1;fill-rule:nonzero;stroke:none"
         id="path100" /><path
         d="M 30726.4,1881.2 H 10456.9 v 154 h 20269.5 v -154"
         style="fill:#131313;fill-opacity:1;fill-rule:nonzero;stroke:none"
         id="path102" /><path
         d="m 29172.3,17883.2 -2966.3,652.3 c -239.8,52.8 -391.4,289.9 -338.7,529.7 l 652.4,2966.2 c 52.7,239.8 289.9,391.5 529.6,338.7 l 2966.3,-652.3 c 239.8,-52.8 391.4,-289.9 338.7,-529.7 L 29702,18221.9 c -52.8,-239.8 -289.9,-391.5 -529.7,-338.7"
         style="fill:#7109b5;fill-opacity:1;fill-rule:nonzero;stroke:none"
         id="path104" /><path
         d="m 28835.2,20540 c -80.6,-381.9 -438.8,-628.3 -800.2,-550.3 -361.2,78 -588.8,450.8 -508.2,832.8 80.6,382 438.8,628.4 800.1,550.4 361.3,-78 588.9,-450.9 508.3,-832.9"
         style="fill:#ffffff;fill-opacity:1;fill-rule:nonzero;stroke:none"
         id="path106" /><path
         d="m 26974.9,19300.9 c 108.1,512.1 508,461.4 992.5,356.9 484.5,-104.7 870,-223.5 761.9,-735.7 l -1754.4,378.8"
         style="fill:#ffffff;fill-opacity:1;fill-rule:nonzero;stroke:none"
         id="path108" /><path
         d="M 14557.8,20129.9 9716.47,19065.6 c -360.58,-78.7 -585.84,-454.3 -500.52,-834.7 l 719.21,-3208.1 c 85.24,-380.4 450.04,-627.2 810.64,-548.4 l 3384.7,758.3 1896.9,-816.1 -440.2,1122 c 360.6,78.7 585.8,454.3 500.5,834.7 l -719.2,3208.1 c -85.3,380.4 -450.1,627.2 -810.7,548.5"
         style="fill:#390d9f;fill-opacity:1;fill-rule:nonzero;stroke:none"
         id="path110" /><path
         d="m 11311,17076.9 c -48.4,223.8 -269.1,366.1 -493,317.7 -223.9,-48.4 -366.2,-269.2 -317.8,-493 48.4,-223.9 269.2,-366.2 493.1,-317.8 223.9,48.4 366.1,269.2 317.7,493.1"
         style="fill:#ffffff;fill-opacity:1;fill-rule:nonzero;stroke:none"
         id="path112" /><path
         d="m 12887.7,17417.7 c -48.4,223.9 -269.1,366.2 -493,317.8 -223.9,-48.4 -366.2,-269.2 -317.7,-493.1 48.4,-223.8 269.1,-366.1 493,-317.7 223.9,48.4 366.1,269.2 317.7,493"
         style="fill:#ffffff;fill-opacity:1;fill-rule:nonzero;stroke:none"
         id="path114" /><path
         d="m 14464.5,17758.6 c -48.5,223.9 -269.2,366.2 -493.1,317.7 -223.9,-48.3 -366.1,-269.1 -317.7,-493 48.4,-223.9 269.1,-366.1 493,-317.7 223.9,48.4 366.2,269.1 317.8,493"
         style="fill:#ffffff;fill-opacity:1;fill-rule:nonzero;stroke:none"
         id="path116" /></g></g></svg>
